<svg id="Layer_1" data-name="Layer 1" xmlns="http://www.w3.org/2000/svg" viewBox="0 0 662.9 643.5">
  <title>GH#_logo_BW</title>
  <polygon points="647 392.2 3.5 392.2 0 432.4 643.5 432.4 647 392.2" fill="#bebebe" opacity="0.4" style="isolation: isolate"/>
  <polygon points="662.9 211.2 19.4 211.2 15.8 251.4 659.4 251.4 662.9 211.2" fill="#bebebe" opacity="0.4" style="isolation: isolate"/>
  <polygon points="232.9 643.5 289.2 0 249 0 192.7 643.5 232.9 643.5" fill="#bebebe" opacity="0.4" style="isolation: isolate"/>
  <polygon points="413.9 643.5 470.2 0 430 0 373.7 643.5 413.9 643.5" fill="#bebebe" opacity="0.4" style="isolation: isolate"/>
  <path d="M234.6,433.5H222A183.9,183.9,0,0,1,93.7,374.7a179.33,179.33,0,0,1-36.4-60,191.51,191.51,0,0,1-11.4-73.1,212.61,212.61,0,0,1,16.2-73.3A225.77,225.77,0,0,1,103.6,103a228.94,228.94,0,0,1,61.9-48.3,218.86,218.86,0,0,1,71.2-23.6A190.87,190.87,0,0,1,376.2,63.2L349.4,98.6a151.12,151.12,0,0,0-110-25.3,171.52,171.52,0,0,0-56.2,18.6,181.66,181.66,0,0,0-49,38.1,179.44,179.44,0,0,0-32.7,51.5,167.32,167.32,0,0,0-12.8,57.9,151.39,151.39,0,0,0,9,57.7,141.68,141.68,0,0,0,28.7,47.3,145.35,145.35,0,0,0,101.3,46.3H596.9l-3.7,42.6H234.6Z"/>
  <polygon points="600.5 593.3 557.9 593.3 591.3 211.2 633.9 211.2 600.5 593.3"/>
  <polygon points="419.5 593.3 376.9 593.3 406.7 252.5 337.5 252.5 341.2 210 453 210 419.5 593.3"/>
</svg>
