<svg id="Layer_1" data-name="Layer 1" xmlns="http://www.w3.org/2000/svg" viewBox="0 0 907.1 907.1">
  <title>GH#_logo_Color</title>
  <path d="M869.4,27.6l-828,855A110.38,110.38,0,0,1,0,796.2V111A111,111,0,0,1,110.9,0H796.3A110.06,110.06,0,0,1,869.4,27.6Z" transform="translate(0 0)" fill="#b3d1a7"/>
  <path d="M907.1,111V796.2A110.79,110.79,0,0,1,796.4,907.1H110.9a110,110,0,0,1-70-24.5l828-854.9A111,111,0,0,1,907.1,111Z" transform="translate(0 0)" fill="#579441"/>
  <polygon points="765.6 523.9 122.1 523.9 118.6 564.2 762.1 564.2 765.6 523.9" fill="#fff" opacity="0.4" style="isolation: isolate"/>
  <polygon points="781.4 343 137.9 343 134.4 383.2 777.9 383.2 781.4 343" fill="#fff" opacity="0.4" style="isolation: isolate"/>
  <polygon points="351.5 775.3 407.8 131.8 367.6 131.8 311.3 775.3 351.5 775.3" fill="#fff" opacity="0.4" style="isolation: isolate"/>
  <polygon points="532.5 775.3 588.8 131.8 548.5 131.8 492.3 775.3 532.5 775.3" fill="#fff" opacity="0.4" style="isolation: isolate"/>
  <path d="M353.2,565.3H340.6a184.11,184.11,0,0,1-128.4-58.6,179.33,179.33,0,0,1-36.4-60,191.51,191.51,0,0,1-11.4-73.1A209.73,209.73,0,0,1,180.6,300a225.77,225.77,0,0,1,41.5-65.3A228.94,228.94,0,0,1,284,186.4a218.86,218.86,0,0,1,71.2-23.6A191.4,191.4,0,0,1,494.7,195l-26.8,35a151.12,151.12,0,0,0-110-25.3,172.61,172.61,0,0,0-56.3,18.9,179.6,179.6,0,0,0-48.9,38.2A176.48,176.48,0,0,0,220,313.4a167.32,167.32,0,0,0-12.8,57.9,151.39,151.39,0,0,0,9,57.7,141.68,141.68,0,0,0,28.7,47.3,145.35,145.35,0,0,0,101.3,46.3H715.4l-3.7,42.6-358.5.1Z" transform="translate(0 0)" fill="#fff"/>
  <polygon points="719 725.1 676.5 725.1 709.9 343 752.5 343 719 725.1" fill="#fff"/>
  <polygon points="538 725.1 495.5 725.1 525.3 384.3 456.1 384.3 459.8 341.8 571.6 341.8 538 725.1" fill="#fff"/>
</svg>
